<svg xmlns="http://www.w3.org/2000/svg" width="292.632" height="319" viewBox="0 0 292.632 319"><defs><style>.a{fill:#2196f3;}.b{fill:#2384d1;}.c{fill:#238de2;}.d{fill:#433f43;}.e{fill:#1470b9;}</style></defs><g transform="translate(-0.5)"><path class="a" d="M53.642,329.7c18.137-11.2,26.9-28.986,26.9-28.986s-26.453,6.781-42.207-2.278S12.019,280.38,3.747,288.258C-3.564,295.221-2.919,323.058,53.642,329.7Zm0,0" transform="translate(0 -107.52)"/><path class="a" d="M368.612,329.7c-18.139-11.2-26.905-28.986-26.905-28.986s26.453,6.781,42.207-2.278,26.319-18.056,34.591-10.178C425.816,295.221,425.171,323.058,368.612,329.7Zm0,0" transform="translate(-128.619 -107.52)"/><path class="a" d="M148.781,319c28,0,19.529-79.825,19.529-79.825,33.416,64.079,66.123,82.067,77.842,73.909,7.525-5.24,4.325-16.511-3.147-26.341s-41.956-56.388-41.956-56.388c61.733,52.8,89.648,32.4,90.756,22.98S273.792,236,251.216,226.889c-24.433-9.857-36.161-33.693-36.161-33.693C300.378,93.786,224.167,0,148.781,0S-2.817,93.786,82.509,193.193c0,0-11.731,23.839-36.163,33.7C23.77,236,4.65,243.913,5.757,253.332s29.025,29.821,90.756-22.977c0,0-34.487,46.558-41.956,56.388s-10.67,21.1-3.144,26.341c11.716,8.158,44.424-9.83,77.839-73.911C129.252,239.175,120.785,319,148.781,319Zm0,0" transform="translate(-1.964)"/><path class="b" d="M70.756,339.064c18.137-11.2,26.9-28.986,26.9-28.986s-13.481,3.456-26.927,2.137C65.655,319,57.421,327.871,45.9,333.839A125.309,125.309,0,0,0,70.756,339.064Zm0,0" transform="translate(-17.114 -116.885)"/><path class="b" d="M368.612,339.064c-18.139-11.2-26.905-28.986-26.905-28.986s13.483,3.456,26.927,2.137c5.077,6.785,13.31,15.656,24.829,21.624A125.281,125.281,0,0,1,368.612,339.064Zm0,0" transform="translate(-128.619 -116.885)"/><g transform="translate(5.251 225.718)"><path class="b" d="M8.125,393.448c6.513,9.589,34.657,20.205,89.3-26.531A16.062,16.062,0,0,0,77.3,364.931,198.164,198.164,0,0,1,8.125,393.448Zm0,0" transform="translate(-8.125 -362.281)"/><path class="b" d="M154.883,382.92a18.065,18.065,0,0,0-22.59,6.717c-10.516,16.343-31.006,44.244-58.586,63.247a9.631,9.631,0,0,0,3.334,3.945C88.76,464.987,121.467,447,154.883,382.92Zm0,0" transform="translate(-32.846 -369.463)"/><path class="b" d="M408.528,393.448c-6.513,9.589-34.657,20.205-89.3-26.531a16.062,16.062,0,0,1,20.127-1.986A198.164,198.164,0,0,0,408.528,393.448Zm0,0" transform="translate(-125.397 -362.281)"/><path class="b" d="M266.684,382.92a18.065,18.065,0,0,1,22.59,6.717c10.516,16.343,31.006,44.244,58.586,63.247a9.63,9.63,0,0,1-3.334,3.945C332.807,464.987,300.1,447,266.684,382.92Zm0,0" transform="translate(-105.589 -369.463)"/><path class="b" d="M222.8,450.3c-15.389,0-19.76-18.278-20.575-40-.789,23.369.757,63.361,20.575,63.361s21.364-39.992,20.575-63.361C242.557,432.026,238.186,450.3,222.8,450.3Zm0,0" transform="translate(-81.232 -380.383)"/></g><path class="c" d="M246.112,237.13c0-18.983-12.21-34.372-27.273-34.372s-27.273,15.389-27.273,34.372,12.21,34.372,27.273,34.372S246.112,256.114,246.112,237.13Zm0,0" transform="translate(-72.023 -76.43)"/><path class="b" d="M218.839,269.474c-12.658,0-23.3-10.872-26.375-25.611a42.887,42.887,0,0,0-.9,8.762c0,18.983,12.21,34.372,27.273,34.372s27.273-15.389,27.273-34.372a42.887,42.887,0,0,0-.9-8.762C242.14,258.6,231.5,269.474,218.839,269.474Zm0,0" transform="translate(-72.023 -91.925)"/><path class="d" d="M147.215,171.184c-5.539,0-9.879,5.391-9.879,12.269s4.339,12.271,9.879,12.271,9.879-5.391,9.879-12.271S152.754,171.184,147.215,171.184Zm0,0" transform="translate(-51.581 -64.528)"/><path class="d" d="M311.512,171.184c-5.539,0-9.879,5.391-9.879,12.269s4.339,12.271,9.879,12.271,9.879-5.391,9.879-12.271S317.051,171.184,311.512,171.184Zm0,0" transform="translate(-113.513 -64.528)"/><path class="e" d="M229.016,230.4c-6.155,0-10.453,7.051-10.453,17.148s4.3,17.146,10.453,17.146,10.453-7.051,10.453-17.146S235.171,230.4,229.016,230.4Zm0,0" transform="translate(-82.199 -86.851)"/></g></svg>